<?xml version="1.0" encoding="UTF-8" ?>
<!DOCTYPE svg PUBLIC "-//W3C//DTD SVG 1.1//EN" "http://www.w3.org/Graphics/SVG/1.1/DTD/svg11.dtd">
<svg width="1000pt" height="1000pt" viewBox="0 0 1000 1000" version="1.1" xmlns="http://www.w3.org/2000/svg">
<g id="#e95d1bff">
<path fill="#e95d1b" opacity="1.00" d=" M 406.99 206.04 C 410.22 203.96 414.27 204.21 417.95 203.96 C 470.97 203.99 523.98 204.00 576.99 203.96 C 581.72 204.07 586.62 203.51 591.19 204.96 C 595.27 206.40 597.18 210.82 597.05 214.90 C 597.40 236.48 597.10 258.06 597.24 279.64 C 613.32 281.51 629.33 283.92 645.22 287.02 C 658.72 289.45 672.26 292.95 684.19 299.93 C 691.79 304.29 698.50 310.24 703.60 317.38 C 718.00 337.94 732.67 358.31 747.13 378.83 C 752.70 386.25 757.23 394.51 763.94 401.02 C 766.94 395.38 770.50 389.51 776.43 386.57 C 781.83 383.69 788.13 384.50 794.01 384.42 C 805.63 384.59 817.27 384.16 828.89 384.60 C 837.34 385.21 842.63 392.67 846.73 399.23 C 848.91 403.12 853.00 406.94 851.65 411.81 C 850.26 418.00 845.81 423.08 840.78 426.71 C 837.41 429.23 833.01 429.32 828.99 429.40 C 816.96 429.32 804.91 429.78 792.90 428.88 C 790.91 428.63 788.70 428.98 787.57 430.82 C 785.48 432.86 787.02 435.78 787.91 438.01 C 789.11 440.98 792.59 441.66 795.11 443.13 C 801.39 445.82 804.57 452.20 808.90 457.07 C 818.15 468.78 830.85 477.43 838.86 490.17 C 856.76 517.30 861.91 551.19 858.86 583.09 C 854.98 623.55 839.26 661.79 820.15 697.27 C 818.99 700.06 816.12 701.10 813.46 701.93 C 813.30 727.97 813.48 754.02 813.38 780.07 C 813.43 785.72 810.47 791.84 804.77 793.62 C 796.43 796.19 787.59 795.12 779.00 795.24 C 766.02 795.06 752.46 796.70 740.08 791.80 C 735.32 789.88 730.03 786.94 728.75 781.54 C 727.97 777.07 728.45 772.51 728.36 768.00 C 728.33 745.94 728.46 723.89 728.37 701.83 C 724.25 701.00 719.76 700.43 716.53 697.47 C 710.78 692.40 706.63 685.86 702.41 679.54 C 569.26 679.06 436.11 679.48 302.96 679.31 C 299.92 678.83 298.29 681.68 296.64 683.68 C 292.81 688.75 288.51 693.67 282.96 696.90 C 277.39 700.12 270.85 700.65 264.63 701.66 C 264.69 727.46 264.70 753.26 264.65 779.05 C 264.79 786.09 259.76 793.17 252.62 794.32 C 242.18 796.20 231.53 794.96 221.00 795.25 C 211.92 795.15 202.17 796.44 193.79 792.12 C 188.64 789.54 186.03 783.65 186.28 778.07 C 186.36 754.69 186.36 731.31 186.35 707.93 C 186.33 705.62 186.26 703.13 184.70 701.28 C 178.27 692.86 174.21 682.99 169.50 673.58 C 152.46 637.26 140.22 597.45 142.37 556.93 C 143.55 531.72 150.77 506.27 165.78 485.73 C 169.21 480.94 173.15 476.52 177.67 472.73 C 186.18 465.49 193.02 456.60 200.18 448.10 C 204.04 443.39 210.02 441.54 215.52 439.55 C 217.06 438.81 219.27 438.42 219.67 436.46 C 220.47 433.95 220.23 431.28 220.29 428.70 C 205.53 429.72 190.72 429.42 175.94 429.37 C 166.31 429.27 159.35 420.52 156.64 412.08 C 159.06 405.90 163.99 401.17 168.51 396.48 C 171.61 393.28 173.29 389.09 175.34 385.21 C 190.49 383.83 205.74 384.48 220.94 384.54 C 224.26 384.85 228.56 384.10 230.74 387.28 C 234.94 392.77 235.51 399.93 236.76 406.50 C 237.53 406.42 239.07 406.27 239.84 406.20 C 261.29 373.56 282.51 340.60 307.79 310.75 C 314.44 302.66 323.68 297.12 333.39 293.48 C 355.61 285.10 379.54 283.85 402.86 280.81 C 403.08 259.52 402.86 238.22 402.95 216.92 C 403.03 213.03 403.55 208.48 406.99 206.04 M 409.96 210.42 C 408.75 233.47 409.70 256.57 409.47 279.65 C 469.71 273.31 530.58 272.54 590.89 278.38 C 591.00 255.73 591.74 233.06 590.55 210.42 C 583.04 210.12 575.52 210.05 568.00 210.12 C 515.32 210.44 462.64 209.73 409.96 210.42 M 399.28 303.96 C 384.89 306.08 370.40 308.07 356.46 312.35 C 348.40 314.82 340.39 317.44 332.45 320.24 C 329.09 321.27 326.66 323.93 324.75 326.75 C 312.77 344.35 300.30 361.61 287.95 378.96 C 276.12 395.84 263.79 412.39 252.69 429.75 C 262.58 429.59 272.27 427.40 282.09 426.47 C 322.59 422.14 363.30 420.01 404.01 419.11 C 430.00 418.09 456.01 418.53 482.01 418.04 C 502.01 418.96 522.02 417.99 542.03 417.83 C 560.68 418.83 579.37 418.34 598.03 419.20 C 629.80 419.71 661.57 421.23 693.24 423.90 C 713.86 425.51 734.33 428.47 754.85 431.01 C 752.10 425.39 748.29 420.41 744.59 415.40 C 723.24 385.98 701.88 356.54 681.74 326.27 C 679.50 322.74 676.09 320.07 672.14 318.72 C 661.72 314.95 650.96 312.21 640.16 309.78 C 600.03 301.17 558.85 299.60 517.98 297.82 C 478.34 297.09 438.59 298.58 399.28 303.96 M 210.61 486.42 C 200.27 490.57 191.21 497.65 184.21 506.27 C 176.50 515.91 173.61 529.20 176.65 541.17 C 178.51 548.68 182.91 555.29 187.99 561.02 C 190.76 563.88 193.87 567.16 198.09 567.49 C 211.37 568.44 224.69 568.34 237.98 568.85 C 248.65 569.58 259.34 569.33 270.02 569.84 C 281.77 570.61 293.57 570.41 305.32 571.30 C 302.35 564.11 298.32 557.43 294.24 550.83 C 285.64 537.13 275.64 524.26 264.06 512.94 C 252.84 501.41 239.37 491.39 223.71 487.00 C 219.47 485.94 214.84 484.66 210.61 486.42 M 346.56 500.94 C 350.91 524.83 355.96 548.58 360.69 572.40 C 453.89 572.39 547.09 572.38 640.29 572.41 C 644.88 548.24 650.52 524.23 653.97 499.86 C 632.99 496.31 611.84 493.84 590.63 492.18 C 553.18 489.08 515.56 489.23 478.02 489.87 C 434.04 491.14 390.12 494.71 346.56 500.94 M 755.40 502.42 C 744.60 509.34 735.78 518.79 727.12 528.14 C 714.47 542.73 703.47 558.88 695.15 576.34 C 704.10 576.53 713.03 575.54 721.99 575.50 C 733.19 575.47 744.36 574.59 755.57 574.48 C 768.38 574.41 781.15 573.29 793.97 573.31 C 798.55 572.99 803.68 573.52 807.60 570.67 C 822.05 560.27 828.88 540.11 822.86 523.22 C 817.87 510.28 807.02 500.39 794.94 494.06 C 791.63 492.43 788.11 490.50 784.31 490.94 C 773.82 492.01 764.10 496.70 755.40 502.42 Z" />
<path fill="#e95d1b" opacity="1.00" d=" M 480.25 223.36 C 483.31 223.46 486.38 223.50 489.46 223.50 C 491.25 227.87 492.88 232.32 494.16 236.87 C 496.58 245.63 499.96 254.15 501.23 263.20 C 499.25 263.03 497.27 262.85 495.30 262.68 C 494.10 259.23 492.91 255.78 491.71 252.33 C 486.56 252.26 481.42 252.26 476.28 252.33 C 474.96 256.07 473.63 259.82 472.25 263.54 C 470.58 263.06 468.92 262.59 467.27 262.12 C 471.11 249.06 474.25 235.66 480.25 223.36 M 481.54 232.40 C 479.72 237.47 478.83 242.82 477.74 248.08 C 482.14 248.31 486.55 248.36 490.96 248.20 C 489.75 241.21 488.06 234.29 485.42 227.69 C 483.98 229.12 482.23 230.41 481.54 232.40 Z" />
<path fill="#e95d1b" opacity="1.00" d=" M 536.77 223.00 C 537.96 223.46 539.15 223.93 540.35 224.39 C 538.53 228.66 535.91 232.48 533.16 236.18 C 531.52 238.75 529.23 242.01 530.88 245.11 C 533.86 250.90 538.16 255.92 541.09 261.76 C 539.42 262.13 537.75 262.51 536.09 262.89 C 531.78 257.41 528.58 251.21 524.86 245.35 C 520.00 250.36 517.47 256.97 513.38 262.50 C 511.52 262.54 509.69 262.18 507.86 261.98 C 510.55 255.91 514.86 250.80 518.32 245.19 C 519.75 243.10 518.22 240.65 517.27 238.71 C 514.47 233.95 511.08 229.56 508.33 224.77 C 509.90 224.33 511.47 223.89 513.06 223.46 C 517.39 228.57 520.65 234.44 524.10 240.16 C 528.55 234.60 531.73 228.10 536.77 223.00 Z" />
<path fill="#e95d1b" opacity="1.00" d=" M 436.33 224.07 C 444.81 223.16 453.35 223.24 461.85 223.93 C 462.35 225.01 462.85 226.09 463.36 227.17 C 459.70 227.76 456.02 228.14 452.33 228.45 C 452.29 239.90 452.55 251.35 452.20 262.80 C 450.17 262.80 448.15 262.80 446.13 262.80 C 446.11 251.34 446.30 239.88 446.07 228.42 C 442.37 228.12 438.68 227.75 435.01 227.19 C 435.45 226.15 435.88 225.11 436.33 224.07 Z" />
<path fill="#e95d1b" opacity="1.00" d=" M 552.00 223.73 C 554.02 223.70 556.04 223.67 558.07 223.65 C 558.18 236.70 558.22 249.75 558.05 262.79 C 556.01 262.79 553.97 262.78 551.93 262.79 C 551.70 249.77 551.67 236.75 552.00 223.73 Z" />
</g>
<g id="#ffffffff">
<path fill="#ffffff" opacity="1.00" d=" M 409.96 210.42 C 462.64 209.73 515.32 210.44 568.00 210.12 C 575.52 210.05 583.04 210.12 590.55 210.42 C 591.74 233.06 591.00 255.73 590.89 278.38 C 530.58 272.54 469.71 273.31 409.47 279.65 C 409.70 256.57 408.75 233.47 409.96 210.42 M 480.25 223.36 C 474.25 235.66 471.11 249.06 467.27 262.12 C 468.92 262.59 470.58 263.06 472.25 263.54 C 473.63 259.82 474.96 256.07 476.28 252.33 C 481.42 252.26 486.56 252.26 491.71 252.33 C 492.91 255.78 494.10 259.23 495.30 262.68 C 497.27 262.85 499.25 263.03 501.23 263.20 C 499.96 254.15 496.58 245.63 494.16 236.87 C 492.88 232.32 491.25 227.87 489.46 223.50 C 486.38 223.50 483.31 223.46 480.25 223.36 M 536.77 223.00 C 531.73 228.10 528.55 234.60 524.10 240.16 C 520.65 234.44 517.39 228.57 513.06 223.46 C 511.47 223.89 509.90 224.33 508.33 224.77 C 511.08 229.56 514.47 233.95 517.27 238.71 C 518.22 240.65 519.75 243.10 518.32 245.19 C 514.86 250.80 510.55 255.91 507.86 261.98 C 509.69 262.18 511.52 262.54 513.38 262.50 C 517.47 256.97 520.00 250.36 524.86 245.35 C 528.58 251.21 531.78 257.41 536.09 262.89 C 537.75 262.51 539.42 262.13 541.09 261.76 C 538.16 255.92 533.86 250.90 530.88 245.11 C 529.23 242.01 531.52 238.75 533.16 236.18 C 535.91 232.48 538.53 228.66 540.35 224.39 C 539.15 223.93 537.96 223.46 536.77 223.00 M 436.33 224.07 C 435.88 225.11 435.45 226.15 435.01 227.19 C 438.68 227.75 442.37 228.12 446.07 228.42 C 446.30 239.88 446.11 251.34 446.13 262.80 C 448.15 262.80 450.17 262.80 452.20 262.80 C 452.55 251.35 452.29 239.90 452.33 228.45 C 456.02 228.14 459.70 227.76 463.36 227.17 C 462.85 226.09 462.35 225.01 461.85 223.93 C 453.35 223.24 444.81 223.16 436.33 224.07 M 552.00 223.73 C 551.67 236.75 551.70 249.77 551.93 262.79 C 553.97 262.78 556.01 262.79 558.05 262.79 C 558.22 249.75 558.18 236.70 558.07 223.65 C 556.04 223.67 554.02 223.70 552.00 223.73 Z" />
<path fill="#ffffff" opacity="1.00" d=" M 481.54 232.40 C 482.23 230.41 483.98 229.12 485.42 227.69 C 488.06 234.29 489.75 241.21 490.96 248.20 C 486.55 248.36 482.14 248.31 477.74 248.08 C 478.83 242.82 479.72 237.47 481.54 232.40 Z" />
</g>
</svg>
